<mxfile host="app.diagrams.net" modified="2024-05-23T10:27:12.594Z" agent="Mozilla/5.0 (Macintosh; Intel Mac OS X 10_15_7) AppleWebKit/537.36 (KHTML, like Gecko) Chrome/124.0.0.0 Safari/537.36" etag="KMufV0o76OTDP11ov5dB" version="24.4.6" type="github">
  <diagram name="第 1 页" id="eSg2anLIftkJ_Klw-Ik-">
    <mxGraphModel dx="637" dy="320" grid="1" gridSize="10" guides="1" tooltips="1" connect="1" arrows="1" fold="1" page="1" pageScale="1" pageWidth="827" pageHeight="1169" math="1" shadow="0">
      <root>
        <mxCell id="0" />
        <mxCell id="1" parent="0" />
        <mxCell id="UKzYZrvi3ZrDzr7gzVZ_-1" value="&lt;font style=&quot;font-size: 9px;&quot;&gt;embedding&lt;/font&gt;" style="rounded=1;whiteSpace=wrap;html=1;fillColor=#ffe6cc;strokeColor=#d79b00;" vertex="1" parent="1">
          <mxGeometry x="170" y="80" width="70" height="30" as="geometry" />
        </mxCell>
        <mxCell id="UKzYZrvi3ZrDzr7gzVZ_-20" style="edgeStyle=orthogonalEdgeStyle;rounded=0;orthogonalLoop=1;jettySize=auto;html=1;exitX=0.5;exitY=1;exitDx=0;exitDy=0;" edge="1" parent="1" source="UKzYZrvi3ZrDzr7gzVZ_-2">
          <mxGeometry relative="1" as="geometry">
            <mxPoint x="205" y="120" as="targetPoint" />
            <Array as="points">
              <mxPoint x="205" y="180" />
              <mxPoint x="250" y="180" />
              <mxPoint x="250" y="120" />
            </Array>
          </mxGeometry>
        </mxCell>
        <mxCell id="UKzYZrvi3ZrDzr7gzVZ_-21" value="&lt;font style=&quot;font-size: 8px;&quot;&gt;31x&lt;/font&gt;" style="edgeLabel;html=1;align=center;verticalAlign=middle;resizable=0;points=[];" vertex="1" connectable="0" parent="UKzYZrvi3ZrDzr7gzVZ_-20">
          <mxGeometry x="0.1344" relative="1" as="geometry">
            <mxPoint as="offset" />
          </mxGeometry>
        </mxCell>
        <mxCell id="UKzYZrvi3ZrDzr7gzVZ_-23" style="edgeStyle=orthogonalEdgeStyle;rounded=0;orthogonalLoop=1;jettySize=auto;html=1;exitX=0.5;exitY=1;exitDx=0;exitDy=0;entryX=0.5;entryY=0;entryDx=0;entryDy=0;" edge="1" parent="1" source="UKzYZrvi3ZrDzr7gzVZ_-2" target="UKzYZrvi3ZrDzr7gzVZ_-22">
          <mxGeometry relative="1" as="geometry" />
        </mxCell>
        <mxCell id="UKzYZrvi3ZrDzr7gzVZ_-2" value="&lt;font style=&quot;font-size: 9px;&quot;&gt;Decoder Layer&lt;/font&gt;" style="rounded=1;whiteSpace=wrap;html=1;fillColor=#dae8fc;strokeColor=#6c8ebf;" vertex="1" parent="1">
          <mxGeometry x="170" y="140" width="70" height="30" as="geometry" />
        </mxCell>
        <mxCell id="UKzYZrvi3ZrDzr7gzVZ_-16" value="&lt;font style=&quot;font-size: 9px;&quot;&gt;lm_head&lt;/font&gt;" style="rounded=1;whiteSpace=wrap;html=1;fillColor=#b0e3e6;strokeColor=#0e8088;" vertex="1" parent="1">
          <mxGeometry x="170" y="250" width="70" height="30" as="geometry" />
        </mxCell>
        <mxCell id="UKzYZrvi3ZrDzr7gzVZ_-18" style="edgeStyle=orthogonalEdgeStyle;rounded=0;orthogonalLoop=1;jettySize=auto;html=1;exitX=0.5;exitY=1;exitDx=0;exitDy=0;entryX=0.506;entryY=-0.089;entryDx=0;entryDy=0;entryPerimeter=0;" edge="1" parent="1" source="UKzYZrvi3ZrDzr7gzVZ_-1" target="UKzYZrvi3ZrDzr7gzVZ_-2">
          <mxGeometry relative="1" as="geometry" />
        </mxCell>
        <mxCell id="UKzYZrvi3ZrDzr7gzVZ_-24" style="edgeStyle=orthogonalEdgeStyle;rounded=0;orthogonalLoop=1;jettySize=auto;html=1;exitX=0.5;exitY=1;exitDx=0;exitDy=0;entryX=0.5;entryY=0;entryDx=0;entryDy=0;" edge="1" parent="1" source="UKzYZrvi3ZrDzr7gzVZ_-22" target="UKzYZrvi3ZrDzr7gzVZ_-16">
          <mxGeometry relative="1" as="geometry" />
        </mxCell>
        <mxCell id="UKzYZrvi3ZrDzr7gzVZ_-22" value="&lt;font style=&quot;font-size: 9px;&quot;&gt;RMSNorm&lt;/font&gt;" style="rounded=1;whiteSpace=wrap;html=1;fillColor=#e1d5e7;strokeColor=#9673a6;" vertex="1" parent="1">
          <mxGeometry x="170" y="200" width="70" height="30" as="geometry" />
        </mxCell>
      </root>
    </mxGraphModel>
  </diagram>
</mxfile>
